<?xml version="1.0" encoding="UTF-8"?> <svg xmlns="http://www.w3.org/2000/svg" width="1657" height="1734" viewBox="0 0 1657 1734" fill="none"> <path d="M767.314 1335.92L813.512 1382.12L1097.56 1098.03C1169.98 1025.6 1214.93 925.073 1214.93 813.933C1214.93 592.278 1035.13 412.456 813.512 412.456C591.889 412.456 412.093 592.278 412.093 814.558C412.093 925.073 457.042 1025.6 529.46 1098.03C535.702 1104.27 543.818 1108.02 553.183 1108.02C571.287 1108.02 585.646 1093.66 585.646 1075.55C585.646 1066.18 581.9 1058.07 575.657 1051.82C515.101 991.258 477.643 906.966 477.643 814.558C477.643 629.116 628.722 478.016 814.136 478.016C999.55 478.016 1150.63 629.116 1150.63 814.558C1150.63 907.59 1113.17 991.257 1051.99 1052.45L767.314 1335.92Z" fill="black"></path> <path d="M490.754 1172.32L329.687 1224.77L316.577 1206.04L391.492 1108.01V1107.39L274.125 1144.85L261.015 1126.12L364.647 992.503L382.127 1017.48L310.334 1106.14V1106.76L419.585 1072.42L433.943 1093.03L364.647 1184.19V1184.81L472.025 1147.35L490.754 1172.32Z" fill="black"></path> <path d="M341.56 965.652L344.681 973.769L267.894 1048.69L256.032 1018.72L314.715 964.403V963.779L234.806 965.028L222.945 935.682L394 936.931L405.862 965.652H341.56Z" fill="black"></path> <path d="M322.183 920.703L304.079 901.348C309.697 894.479 315.316 881.367 315.316 869.504C315.316 856.392 309.697 847.651 300.957 847.651C292.841 847.651 287.847 855.144 287.847 868.88V887.611H265.373V868.255C265.373 856.392 259.754 849.524 252.263 849.524C244.771 849.524 239.777 857.017 239.777 868.255C239.777 880.119 244.771 891.358 249.765 898.85L232.285 916.957C223.545 905.094 216.678 887.611 216.678 865.758C216.678 840.158 229.788 820.803 249.141 820.803C260.378 820.803 270.367 828.295 274.737 838.285H275.361C277.858 829.544 285.974 818.305 300.957 818.305C323.432 818.305 337.79 840.158 338.415 869.504C338.415 893.231 331.547 909.465 322.183 920.703Z" fill="black"></path> <path d="M267.896 798.96C232.936 791.468 213.583 761.498 220.45 729.03C226.693 697.186 251.665 675.957 294.741 684.699L300.359 685.947L282.879 770.239C300.984 771.488 312.221 758.376 315.342 742.766C317.215 732.152 315.967 721.537 310.348 712.796L331.574 697.811C340.938 713.42 343.435 731.527 339.69 750.259C332.823 782.727 304.73 806.453 267.896 798.96ZM274.139 711.547C259.781 709.674 246.671 717.791 243.549 732.776C240.428 748.386 250.416 761.498 262.902 765.868L274.139 711.547Z" fill="black"></path> <path d="M216.702 611.022L209.21 591.042C215.453 589.168 226.69 584.798 231.06 574.183C236.055 562.32 231.685 552.33 227.939 546.71L247.292 537.969C252.286 544.837 259.154 562.944 251.038 582.925C242.922 601.656 225.442 609.149 216.702 611.022ZM242.922 636.621L254.159 609.773L320.334 637.246V636.621L274.136 561.071L283.501 537.969L390.254 582.3L379.017 609.149L312.842 581.676V582.3L359.04 657.85L349.676 680.952L242.922 636.621Z" fill="black"></path> <path d="M334.08 428.058L299.744 464.897L281.015 447.414L370.913 350.635L384.023 374.986L353.433 407.454L452.695 499.862L433.966 520.467L334.08 428.058Z" fill="black"></path> <path d="M528.246 482.386L505.147 500.493L407.758 375.617L430.857 357.51L440.221 369.373H440.846C440.846 358.134 445.84 343.149 458.95 332.534C483.921 312.554 518.257 317.549 540.108 345.646C561.958 373.743 558.212 408.084 532.616 427.44C519.506 438.055 503.274 439.303 492.662 436.182H492.037L528.246 482.386ZM512.639 411.206C527.622 399.343 528.87 379.363 516.385 363.129C503.899 347.519 484.546 343.773 469.563 355.012C454.58 366.875 453.331 386.855 465.817 402.465C477.679 419.323 497.656 423.07 512.639 411.206Z" fill="black"></path> <path d="M679.913 232.004L709.255 227.633L715.498 271.34L761.071 265.096L754.828 221.39L784.169 217.019L800.401 331.281L771.059 335.651L764.817 289.447L719.243 295.691L725.486 341.895L696.145 346.266L679.913 232.004Z" fill="black"></path> <path d="M812.897 268.855C818.516 233.889 847.233 213.285 882.193 218.904C899.049 221.402 913.408 229.519 923.396 242.006L902.17 256.367C897.8 250.123 889.685 245.128 879.696 243.255C860.967 240.133 846.609 253.245 843.487 273.85C840.366 294.454 849.73 311.312 868.459 314.434C879.072 316.307 887.812 313.81 894.055 309.439L909.662 330.044C896.552 338.785 880.32 341.283 863.464 338.785C827.256 332.541 806.654 303.82 812.897 268.855Z" fill="black"></path> <path d="M952.098 233.258L1051.36 266.974L1013.9 376.241L986.434 366.875L1016.4 280.086L972.699 265.101L942.733 351.89L915.265 342.524L952.098 233.258Z" fill="black"></path> <path d="M1050.16 328.161C1069.51 298.191 1105.1 291.323 1134.44 310.054C1163.78 328.785 1172.52 364.375 1153.17 394.346C1133.81 424.316 1098.23 431.184 1068.89 412.453C1038.92 393.097 1030.8 357.507 1050.16 328.161ZM1127.57 377.487C1138.81 360.005 1136.31 340.649 1120.7 330.659C1105.1 320.669 1086.37 326.288 1075.13 343.771C1063.89 360.629 1066.39 380.609 1082 390.599C1097.6 401.214 1116.33 394.97 1127.57 377.487Z" fill="black"></path> <path d="M1112.55 497.393L1091.94 476.164L1206.19 366.273L1226.79 387.502L1216.18 398.116L1216.8 398.74C1228.04 397.492 1243.65 401.238 1255.51 413.101C1277.98 436.203 1276.11 470.544 1250.51 495.519C1224.92 519.87 1190.58 519.87 1168.11 496.768C1156.25 484.281 1153.75 468.671 1155 457.432L1154.37 456.808L1112.55 497.393ZM1181.22 474.291C1194.33 488.027 1214.31 487.403 1229.29 473.042C1243.65 459.305 1245.52 439.325 1232.41 425.589C1219.3 411.852 1199.32 412.477 1184.96 426.838C1169.36 440.574 1168.11 460.554 1181.22 474.291Z" fill="black"></path> <path d="M1299.21 514.86L1280.49 483.641L1301.09 471.778L1354.78 561.689L1329.8 566.06L1314.2 540.46L1235.54 587.289L1220.55 562.313L1299.21 514.86Z" fill="black"></path> <path d="M1294.84 755.249L1447.79 828.301L1444.67 850.779L1322.93 870.135V870.759L1434.06 924.456L1430.93 946.934L1263.62 972.533L1267.99 942.563L1380.99 927.578V926.953L1277.98 876.379L1281.73 851.403L1394.72 833.296V832.672L1291.09 785.843L1294.84 755.249Z" fill="black"></path> <path d="M1322.34 989.372C1354.17 1004.36 1365.41 1039.32 1350.43 1070.54C1335.45 1102.38 1301.11 1114.87 1269.27 1099.89C1237.43 1084.9 1226.2 1049.94 1241.18 1018.72C1256.79 986.875 1290.5 974.387 1322.34 989.372ZM1283.01 1073.04C1301.73 1081.78 1320.46 1077.41 1328.58 1060.55C1336.69 1043.69 1328.58 1026.21 1309.85 1017.47C1291.75 1008.73 1272.39 1013.1 1264.28 1029.96C1256.16 1046.19 1264.28 1064.3 1283.01 1073.04Z" fill="black"></path> <path d="M1263.05 1108.65C1290.52 1130.5 1294.89 1166.09 1273.04 1193.56C1262.42 1206.68 1248.69 1216.04 1233.08 1217.91L1230.59 1192.31C1238.08 1191.07 1246.19 1187.32 1253.06 1178.58C1264.92 1164.22 1260.55 1144.86 1244.32 1131.75C1228.09 1118.64 1208.73 1119.26 1196.87 1133.62C1190.01 1141.74 1188.13 1150.48 1188.76 1158.6L1163.79 1162.34C1162.54 1146.73 1168.16 1131.13 1178.77 1118.01C1199.99 1090.54 1235.58 1086.79 1263.05 1108.65Z" fill="black"></path> <path d="M1223.7 1242.26L1203.1 1262.86L1170.63 1230.39L1161.89 1239.14L1171.26 1294.08L1148.78 1316.56L1137.55 1249.75L1062.01 1239.76L1086.36 1215.41L1144.41 1223.53L1153.78 1214.16L1120.69 1181.07L1141.29 1160.46L1223.7 1242.26Z" fill="black"></path> <path d="M1055.73 1246.63L1137.51 1328.42L1096.3 1369.63C1079.45 1386.49 1058.85 1391.49 1045.11 1377.75C1036.37 1369.01 1037 1356.52 1040.12 1349.65L1039.49 1349.03C1027.01 1355.9 1013.27 1354.65 1004.53 1345.91C988.927 1330.3 992.672 1309.07 1010.78 1290.96L1055.73 1246.63ZM1028.88 1303.45C1022.01 1310.32 1020.77 1318.43 1027.01 1324.68C1032.63 1330.3 1041.37 1329.05 1048.23 1322.18L1068.84 1301.57L1050.11 1282.84L1028.88 1303.45ZM1065.71 1333.42C1058.85 1340.29 1058.22 1347.78 1063.84 1354.02C1069.46 1359.64 1076.95 1359.02 1083.82 1352.15L1101.3 1334.67L1083.19 1316.56L1065.71 1333.42Z" fill="black"></path> <path d="M969.578 1496.38L948.976 1516.98L867.194 1435.19L887.796 1414.58L969.578 1496.38ZM1028.89 1437.06L1000.17 1408.34L982.063 1426.45C962.71 1445.8 939.612 1449.55 922.756 1432.69C905.9 1415.83 909.646 1392.1 928.999 1373.37L967.705 1334.66L1049.49 1416.46L1028.89 1437.06ZM947.103 1385.24C938.987 1393.35 936.49 1403.34 944.606 1410.84C952.722 1418.95 962.71 1415.83 970.202 1408.34L985.185 1393.35L962.086 1370.25L947.103 1385.24Z" fill="black"></path> <path d="M563.831 355.015C557.588 336.907 565.079 313.805 601.288 300.693C606.907 298.82 616.271 296.323 623.138 294.45L621.89 291.328C617.52 279.464 605.658 276.967 593.796 281.338C584.432 284.459 575.068 292.576 568.825 300.693L545.102 290.079C553.842 275.718 570.074 262.606 586.305 256.987C616.271 245.748 639.994 254.489 649.983 282.586L675.578 352.517L648.734 362.507L644.988 351.268H644.364C640.618 362.507 631.878 371.248 616.895 376.868C594.421 384.985 571.322 375.619 563.831 355.015ZM632.502 319.425L630.63 314.43C624.387 315.679 617.519 317.552 610.028 320.049C594.421 325.669 588.178 335.034 591.924 344.4C594.421 351.893 603.785 356.888 616.271 351.893C631.878 346.898 636.873 331.912 632.502 319.425Z" fill="black"></path> <path d="M1283.6 599.755C1301.71 594.135 1324.8 602.252 1336.67 639.091C1338.54 644.71 1341.04 654.076 1342.28 661.568L1345.41 660.32C1357.27 656.573 1360.39 644.71 1356.02 632.222C1352.9 622.857 1345.41 612.867 1337.29 606.623L1348.53 583.521C1362.89 592.886 1374.75 609.12 1380.37 625.979C1390.35 656.573 1380.99 679.675 1352.9 689.041L1282.35 712.143L1273.61 684.67L1284.85 680.924V680.3C1273.61 676.553 1265.5 667.188 1260.5 652.203C1252.39 629.1 1262.38 606.623 1283.6 599.755ZM1317.31 669.685L1322.31 667.812C1321.06 661.568 1319.81 654.7 1317.31 647.208C1312.32 631.598 1302.95 624.73 1293.59 627.852C1286.1 630.349 1281.1 639.091 1284.85 652.203C1289.84 668.436 1304.2 674.056 1317.31 669.685Z" fill="black"></path> </svg> 